<svg xmlns="http://www.w3.org/2000/svg" viewBox="0 0 400 300" fill="none" aria-hidden="true">
  <!-- Andes mountain silhouettes -->
  <path d="M0,300 L0,215 L45,185 L85,205 L130,155 L185,178 L235,125 L285,158 L330,118 L370,142 L400,112 L400,300 Z"
    fill="rgba(255,255,255,0.07)"/>
  <path d="M0,300 L0,248 L55,225 L105,240 L158,200 L215,218 L265,178 L315,198 L370,170 L400,182 L400,300 Z"
    fill="rgba(255,255,255,0.05)"/>

  <!-- Shelf / ground line -->
  <rect x="68" y="244" width="260" height="2.5" rx="1.5" fill="rgba(255,255,255,0.22)"/>
  <rect x="68" y="246.5" width="260" height="1" rx="0.5" fill="rgba(0,0,0,0.07)"/>

  <!-- Book 1 (x=85, top=95, w=40, h=149) -->
  <rect x="85" y="95" width="40" height="149" rx="3" fill="rgba(255,255,255,0.88)"/>
  <rect x="85" y="95" width="12" height="149" rx="2" fill="rgba(255,140,0,0.30)"/>
  <line x1="102" y1="122" x2="118" y2="122" stroke="rgba(120,60,0,0.17)" stroke-width="1.5" stroke-linecap="round"/>
  <line x1="102" y1="133" x2="118" y2="133" stroke="rgba(120,60,0,0.17)" stroke-width="1.5" stroke-linecap="round"/>
  <line x1="102" y1="144" x2="118" y2="144" stroke="rgba(120,60,0,0.12)" stroke-width="1.5" stroke-linecap="round"/>

  <!-- Book 2 (x=132, top=70, w=36, h=174) — taller, bookmark tab -->
  <rect x="132" y="70" width="36" height="174" rx="3" fill="rgba(255,255,255,0.80)"/>
  <rect x="132" y="70" width="11" height="174" rx="2" fill="rgba(255,200,40,0.26)"/>
  <line x1="148" y1="98" x2="162" y2="98" stroke="rgba(120,60,0,0.14)" stroke-width="1.5" stroke-linecap="round"/>
  <line x1="148" y1="109" x2="162" y2="109" stroke="rgba(120,60,0,0.14)" stroke-width="1.5" stroke-linecap="round"/>
  <!-- Bookmark tab -->
  <rect x="151" y="59" width="9" height="20" rx="2" fill="rgba(250,120,0,0.52)"/>

  <!-- Book 3 (x=175, top=48, w=46, h=196) — tallest, center -->
  <rect x="175" y="48" width="46" height="196" rx="3" fill="rgba(255,255,255,0.95)"/>
  <rect x="175" y="48" width="14" height="196" rx="2" fill="rgba(195,75,0,0.24)"/>
  <line x1="195" y1="80" x2="214" y2="80" stroke="rgba(120,60,0,0.17)" stroke-width="1.5" stroke-linecap="round"/>
  <line x1="195" y1="92" x2="214" y2="92" stroke="rgba(120,60,0,0.17)" stroke-width="1.5" stroke-linecap="round"/>
  <line x1="195" y1="104" x2="214" y2="104" stroke="rgba(120,60,0,0.12)" stroke-width="1.5" stroke-linecap="round"/>

  <!-- Book 4 (x=228, top=80, w=38, h=164) -->
  <rect x="228" y="80" width="38" height="164" rx="3" fill="rgba(255,255,255,0.83)"/>
  <rect x="228" y="80" width="12" height="164" rx="2" fill="rgba(255,160,20,0.28)"/>
  <line x1="245" y1="108" x2="259" y2="108" stroke="rgba(120,60,0,0.15)" stroke-width="1.5" stroke-linecap="round"/>
  <line x1="245" y1="119" x2="259" y2="119" stroke="rgba(120,60,0,0.15)" stroke-width="1.5" stroke-linecap="round"/>

  <!-- Book 5 (x=273, top=100, w=42, h=144) -->
  <rect x="273" y="100" width="42" height="144" rx="3" fill="rgba(255,255,255,0.90)"/>
  <rect x="273" y="100" width="13" height="144" rx="2" fill="rgba(230,110,5,0.26)"/>
  <line x1="291" y1="126" x2="308" y2="126" stroke="rgba(120,60,0,0.17)" stroke-width="1.5" stroke-linecap="round"/>
  <line x1="291" y1="137" x2="308" y2="137" stroke="rgba(120,60,0,0.17)" stroke-width="1.5" stroke-linecap="round"/>
  <line x1="291" y1="148" x2="308" y2="148" stroke="rgba(120,60,0,0.12)" stroke-width="1.5" stroke-linecap="round"/>

  <!-- Floating dots — top right cluster -->
  <circle cx="342" cy="65" r="5.5" fill="rgba(255,255,255,0.42)"/>
  <circle cx="366" cy="44" r="3.5" fill="rgba(255,255,255,0.32)"/>
  <circle cx="322" cy="50" r="4" fill="rgba(255,255,255,0.28)"/>
  <circle cx="384" cy="82" r="3" fill="rgba(255,255,255,0.36)"/>
  <circle cx="355" cy="30" r="2.5" fill="rgba(255,255,255,0.26)"/>
  <!-- Floating dots — top left cluster -->
  <circle cx="32" cy="68" r="4.5" fill="rgba(255,255,255,0.36)"/>
  <circle cx="16" cy="88" r="3" fill="rgba(255,255,255,0.26)"/>
  <circle cx="52" cy="46" r="3.5" fill="rgba(255,255,255,0.30)"/>
  <!-- Small accent cross (star) -->
  <line x1="390" y1="54" x2="390" y2="64" stroke="rgba(255,255,255,0.34)" stroke-width="2" stroke-linecap="round"/>
  <line x1="385" y1="59" x2="395" y2="59" stroke="rgba(255,255,255,0.34)" stroke-width="2" stroke-linecap="round"/>

  <!-- Subtle label -->
  <text x="200" y="278" text-anchor="middle" font-family="system-ui,sans-serif" font-size="10" font-weight="700"
    fill="rgba(255,255,255,0.18)" letter-spacing="5">SAN JUAN</text>
</svg>
